<svg version="1.1" viewBox="0.0 0.0 377.9527559055118 377.9527559055118" fill="none" stroke="none" stroke-linecap="square" stroke-miterlimit="10" xmlns:xlink="http://www.w3.org/1999/xlink" xmlns="http://www.w3.org/2000/svg"><clipPath id="p.0"><path d="m0 0l377.95276 0l0 377.95276l-377.95276 0l0 -377.95276z" clip-rule="nonzero"/></clipPath><g clip-path="url(#p.0)"><path fill="#000000" d="m0 66.128395l377.95276 0l0 37.637794l-377.95276 0z" fill-rule="evenodd"/><path stroke="#000000" stroke-width="1.0" stroke-linejoin="round" stroke-linecap="butt" d="m0 66.128395l377.95276 0l0 37.637794l-377.95276 0z" fill-rule="evenodd"/><path fill="#000000" d="m63.84536 169.63937l249.85825 0l0 38.677155l-249.85825 0z" fill-rule="evenodd"/><path stroke="#000000" stroke-width="1.0" stroke-linejoin="round" stroke-linecap="butt" d="m63.84536 169.63937l249.85825 0l0 38.677155l-249.85825 0z" fill-rule="evenodd"/><path fill="#000000" d="m152.67368 274.14383l72.18898 0l0 38.677155l-72.18898 0z" fill-rule="evenodd"/><path stroke="#000000" stroke-width="1.0" stroke-linejoin="round" stroke-linecap="butt" d="m152.67368 274.14383l72.18898 0l0 38.677155l-72.18898 0z" fill-rule="evenodd"/><g filter="url(#shadowFilter-p.1)"><use xlink:href="#p.1" transform="matrix(1.0 0.0 0.0 1.0 15.0 0.0)"/></g><defs><filter id="shadowFilter-p.1" filterUnits="userSpaceOnUse"><feGaussianBlur in="SourceAlpha" stdDeviation="0.0" result="blur"/><feComponentTransfer in="blur" color-interpolation-filters="sRGB"><feFuncR type="linear" slope="0" intercept="1.0"/><feFuncG type="linear" slope="0" intercept="1.0"/><feFuncB type="linear" slope="0" intercept="1.0"/><feFuncA type="linear" slope="1.0" intercept="0"/></feComponentTransfer></filter></defs><g id="p.1"><path fill="#000000" fill-opacity="0.0" d="m35.569553 36.425198l282.83466 282.83466" fill-rule="evenodd"/><path stroke="#000000" stroke-width="16.0" stroke-linejoin="round" stroke-linecap="butt" d="m35.569553 36.425198l282.83466 282.83466" fill-rule="evenodd"/></g></g></svg>